# xmcd
#
# Track frame offsets:
#	150
#	12232
#	25424
#	39219
#	51397
#	62247
#	71310
#	83615
#	96217
#	108035
#	121009
#
# Disc length: 1801 seconds
#
# Revision: 0
# Processed by: cddbd v1.5.2PL0 Copyright (c) Steve Scherf et al.
# Submitted via: EZCDAudioConverter 1.0.6.1
#
DISCID=7f07070b
DTITLE=Corey and the Zydeco Teen Excitement - Do Ya Hear What I'm Sayin'
DYEAR=2001
DGENRE=blues
TTITLE0=Do ya year from I'm sayin'
TTITLE1=Yea you right girl
TTITLE2=Rice and meat
TTITLE3=Teen excitement
TTITLE4=Nonc Shelton
TTITLE5=La valse de Frilot Cove
TTITLE6=Down in the barnyard
TTITLE7=Trail riders zydeco
TTITLE8=Easy Riders theme song
TTITLE9=Ruby
TTITLE10=La valse pour Delton Broussard
EXTD=
EXTT0=
EXTT1=
EXTT2=
EXTT3=
EXTT4=
EXTT5=
EXTT6=
EXTT7=
EXTT8=
EXTT9=
EXTT10=
PLAYORDER=
